<svg width="16" height="15" viewBox="0 0 16 15" fill="none" xmlns="http://www.w3.org/2000/svg">
<path d="M2.67725 9.37451H4.23974C4.49849 9.37451 4.70849 9.16451 4.70849 8.90576V7.34326C4.70849 7.08451 4.49849 6.87451 4.23974 6.87451H2.67725C2.4185 6.87451 2.2085 7.08451 2.2085 7.34326V8.90576C2.2085 9.16451 2.4185 9.37451 2.67725 9.37451Z" fill="#14569B"/>
<path d="M2.67725 13.1245H4.23974C4.49849 13.1245 4.70849 12.9145 4.70849 12.6558V11.0933C4.70849 10.8345 4.49849 10.6245 4.23974 10.6245H2.67725C2.4185 10.6245 2.2085 10.8345 2.2085 11.0933V12.6558C2.2085 12.9145 2.4185 13.1245 2.67725 13.1245Z" fill="#14569B"/>
<path d="M7.05273 9.37451H8.61523C8.87398 9.37451 9.08398 9.16451 9.08398 8.90576V7.34326C9.08398 7.08451 8.87398 6.87451 8.61523 6.87451H7.05273C6.79398 6.87451 6.58398 7.08451 6.58398 7.34326V8.90576C6.58398 9.16451 6.79398 9.37451 7.05273 9.37451Z" fill="#14569B"/>
<path d="M7.05273 13.1245H8.61523C8.87398 13.1245 9.08398 12.9145 9.08398 12.6558V11.0933C9.08398 10.8345 8.87398 10.6245 8.61523 10.6245H7.05273C6.79398 10.6245 6.58398 10.8345 6.58398 11.0933V12.6558C6.58398 12.9145 6.79398 13.1245 7.05273 13.1245Z" fill="#14569B"/>
<path d="M11.4268 9.37451H12.9893C13.248 9.37451 13.458 9.16451 13.458 8.90576V7.34326C13.458 7.08451 13.248 6.87451 12.9893 6.87451H11.4268C11.168 6.87451 10.958 7.08451 10.958 7.34326V8.90576C10.958 9.16451 11.168 9.37451 11.4268 9.37451Z" fill="#14569B"/>
<path d="M13.4585 1.875H12.8335V0.625C12.8335 0.28 12.5535 0 12.2085 0H11.5835C11.2385 0 10.9585 0.28 10.9585 0.625V1.875H4.7085V0.625C4.7085 0.28 4.4285 0 4.0835 0H3.4585C3.1135 0 2.8335 0.28 2.8335 0.625V1.875H2.2085C1.17475 1.875 0.333496 2.71625 0.333496 3.75V13.125C0.333496 14.1588 1.17475 15 2.2085 15H13.4585C14.4922 15 15.3335 14.1588 15.3335 13.125V3.75C15.3335 2.71625 14.4922 1.875 13.4585 1.875ZM14.0835 13.125C14.0835 13.4694 13.8029 13.75 13.4585 13.75H2.2085C1.86412 13.75 1.5835 13.4694 1.5835 13.125V6.275H14.0835V13.125Z" fill="#14569B"/>
</svg>
