<svg width="15" height="16" viewBox="0 0 15 16" fill="none" xmlns="http://www.w3.org/2000/svg">
<path d="M14.6637 12.3545L12.3472 10.0378C11.8858 9.57821 11.1217 9.59217 10.6442 10.0698L9.47714 11.2366C9.40341 11.196 9.32709 11.1535 9.24685 11.1085C8.50986 10.7002 7.50116 10.1405 6.43971 9.07823C5.37512 8.01377 4.8149 7.00352 4.40529 6.26605C4.36207 6.18792 4.32065 6.11259 4.27976 6.04106L5.06303 5.25895L5.44812 4.87338C5.92633 4.39504 5.93952 3.63116 5.47919 3.17027L3.16268 0.85324C2.70235 0.392997 1.93791 0.406959 1.45969 0.885302L0.806819 1.54192L0.82466 1.55964C0.605743 1.83897 0.422809 2.16114 0.286676 2.50856C0.161186 2.83927 0.083057 3.15484 0.0473321 3.47107C-0.258548 6.00688 0.900247 8.32443 4.04507 11.4693C8.39217 15.8161 11.8954 15.4877 12.0465 15.4717C12.3756 15.4323 12.6911 15.3537 13.0117 15.2292C13.3561 15.0947 13.678 14.912 13.9572 14.6935L13.9714 14.7062L14.6329 14.0586C15.1101 13.5803 15.1238 12.8162 14.6637 12.3545Z" fill="#14569B"/>
</svg>
