<svg width="32" height="32" viewBox="0 0 32 32" fill="none" xmlns="http://www.w3.org/2000/svg">
<g clip-path="url(#clip0_3481_2506)">
<path d="M18.0845 17.377C17.8985 17.658 17.6575 17.8985 17.377 18.0845L21.3035 22.011C21.499 22.2065 21.815 22.2065 22.0105 22.0105C22.206 21.815 22.206 21.499 22.0105 21.3035L18.0845 17.377Z" fill="#14569B"/>
<path d="M16.5 13.5505V7C16.5 6.7235 16.2765 6.5 16 6.5C15.7235 6.5 15.5 6.7235 15.5 7V13.5505C15.6615 13.5175 15.8285 13.5 16 13.5C16.1715 13.5 16.3385 13.5175 16.5 13.5505Z" fill="#14569B"/>
<path d="M16 14.5C15.1715 14.5 14.5 15.1715 14.5 16C14.5 16.8285 15.1715 17.5 16 17.5C16.8285 17.5 17.5 16.8285 17.5 16C17.5 15.1715 16.8285 14.5 16 14.5ZM16 16.5C15.7235 16.5 15.5 16.2765 15.5 16C15.5 15.7235 15.7235 15.5 16 15.5C16.2765 15.5 16.5 15.7235 16.5 16C16.5 16.2765 16.2765 16.5 16 16.5Z" fill="#14569B"/>
<path d="M27.0002 16C27.0002 15.7235 27.2237 15.5 27.5002 15.5H28.9877C28.8662 12.2875 27.5802 9.37395 25.5382 7.16945L24.4857 8.22145C24.2902 8.41695 23.9742 8.41695 23.7787 8.22145C23.5832 8.02595 23.5832 7.70995 23.7787 7.51445L24.8307 6.46245C22.6257 4.41995 19.7122 3.13445 16.4997 3.01245V4.49995C16.4997 4.77645 16.2762 4.99995 15.9997 4.99995C15.7232 4.99995 15.4997 4.77645 15.4997 4.49995V3.01245C12.2872 3.13395 9.3737 4.41995 7.1692 6.46245L8.2212 7.51445C8.4167 7.70995 8.4167 8.02545 8.2212 8.22145C8.0257 8.41695 7.7097 8.41695 7.5142 8.22145L6.4622 7.16945C4.4202 9.37495 3.1347 12.2885 3.0127 15.501H4.4997C4.7762 15.501 4.9992 15.724 4.9997 16.001C4.9997 16.277 4.7762 16.5005 4.4997 16.501H3.0127C3.1347 19.7135 4.4207 22.6264 6.4627 24.8309L7.5147 23.7789C7.7102 23.5834 8.0252 23.5834 8.2217 23.7789C8.4167 23.9739 8.4167 24.29 8.2217 24.486L7.16969 25.538C9.37419 27.58 12.2872 28.8654 15.4997 28.9869L15.5002 27.5C15.5002 27.2235 15.7232 27.0005 16.0002 27C16.2757 27 16.4992 27.2235 16.5002 27.5L16.4997 28.9869C19.7122 28.8654 22.6252 27.5795 24.8297 25.537L23.7777 24.485C23.5822 24.289 23.5822 23.9735 23.7777 23.7775C23.9727 23.5825 24.2887 23.5825 24.4852 23.7775L25.5367 24.8295C27.5792 22.625 28.8647 19.712 28.9862 16.4995H27.5002C27.2237 16.5 27.0002 16.2765 27.0002 16ZM22.7177 22.7175C22.1317 23.3035 21.1827 23.304 20.5967 22.718L16.3442 18.4655C16.2307 18.481 16.1177 18.5 16.0002 18.5C14.6192 18.5 13.5002 17.381 13.5002 16C13.5002 15.1845 13.8962 14.468 14.5002 14.011V6.99995C14.5002 6.17145 15.1717 5.49995 16.0002 5.49995C16.8287 5.49995 17.5002 6.17145 17.5002 6.99995V14.011C18.1042 14.4675 18.5002 15.1845 18.5002 16C18.5002 16.118 18.4812 16.2305 18.4657 16.344L22.7177 20.596C23.3032 21.182 23.3032 22.1315 22.7177 22.7175Z" fill="#14569B"/>
<path d="M16 0C7.1635 0 0 7.1635 0 16C0 24.8365 7.1635 32 16 32C24.8365 32 32 24.8365 32 16C32 7.1635 24.8365 0 16 0ZM16 30C8.268 30 2 23.732 2 16C2 8.268 8.268 2 16 2C23.732 2 30 8.268 30 16C30 23.732 23.732 30 16 30Z" fill="#14569B"/>
</g>
<defs>
<clipPath id="clip0_3481_2506">
<rect width="32" height="32" fill="white"/>
</clipPath>
</defs>
</svg>
