<svg width="15" height="16" viewBox="0 0 15 16" fill="none" xmlns="http://www.w3.org/2000/svg">
<g clip-path="url(#clip0_3333_7029)">
<path d="M10.0397 7.99964L14.4736 3.56603C15.1752 2.86445 15.1752 1.72713 14.4736 1.02591C13.7728 0.324696 12.6347 0.324696 11.9339 1.02591L7.49991 5.46024L3.06594 1.02591C2.36508 0.324696 1.22704 0.324696 0.526182 1.02591C-0.175394 1.72749 -0.175394 2.86481 0.526182 3.56603L4.9598 7.99964L0.526182 12.4333C-0.175394 13.1348 -0.175394 14.2722 0.526182 14.9734C0.876431 15.3243 1.3366 15.4993 1.79606 15.4993C2.25515 15.4993 2.71569 15.3243 3.06594 14.9734L7.49991 10.5398L11.9339 14.9737C12.2845 15.3247 12.7443 15.4996 13.2038 15.4996C13.6632 15.4996 14.1234 15.3247 14.4736 14.9737C15.1752 14.2722 15.1752 13.1348 14.4736 12.4336L10.0397 7.99964Z" fill="#414141"/>
</g>
<defs>
<clipPath id="clip0_3333_7029">
<rect width="15" height="15" fill="white" transform="translate(0 0.5)"/>
</clipPath>
</defs>
</svg>
