<svg width="15" height="30" viewBox="0 0 15 30" fill="none" xmlns="http://www.w3.org/2000/svg">
<g clip-path="url(#clip0_50_3679)">
<path d="M8.24256 3.53247L14.6921 9.98223C15.1026 10.3925 15.1026 11.0577 14.6921 11.4678C14.282 11.8779 13.6168 11.8779 13.2067 11.4678L7.49987 5.76076L1.79319 11.4676C1.38291 11.8778 0.717806 11.8778 0.307689 11.4676C-0.102594 11.0575 -0.102594 10.3924 0.307689 9.98207L6.75735 3.53231C6.96251 3.32725 7.23111 3.22484 7.49984 3.22484C7.7687 3.22484 8.0375 3.32745 8.24256 3.53247Z" fill="#14569B"/>
</g>
<g clip-path="url(#clip1_50_3679)">
<path d="M6.75744 26.4675L0.307882 20.0178C-0.1026 19.6075 -0.1026 18.9423 0.307882 18.5322C0.717999 18.1221 1.38317 18.1221 1.79325 18.5322L7.50013 24.2392L13.2068 18.5324C13.6171 18.1222 14.2822 18.1222 14.6923 18.5324C15.1026 18.9425 15.1026 19.6076 14.6923 20.0179L8.24265 26.4677C8.03749 26.6728 7.76889 26.7752 7.50016 26.7752C7.2313 26.7752 6.9625 26.6726 6.75744 26.4675Z" fill="#414141"/>
</g>
<defs>
<clipPath id="clip0_50_3679">
<rect width="15" height="15" fill="white" transform="translate(0 15) rotate(-90)"/>
</clipPath>
<clipPath id="clip1_50_3679">
<rect width="15" height="15" fill="white" transform="translate(15 15) rotate(90)"/>
</clipPath>
</defs>
</svg>
