<svg width="15" height="16" viewBox="0 0 15 16" fill="none" xmlns="http://www.w3.org/2000/svg">
<path d="M14.9893 3.73119C14.9893 3.71405 15.0011 3.69736 15.0003 3.68042L10.4229 8.09107L14.9949 12.3608C14.9975 12.3303 14.9893 12.2996 14.9893 12.2684V3.73119Z" fill="#14569B"/>
<path d="M9.72397 8.77002L7.8553 10.5679C7.76074 10.6589 7.63862 10.7045 7.51642 10.7045C7.39677 10.7045 7.27712 10.6608 7.18321 10.5733L5.31963 8.83675L0.717773 13.2724C0.829669 13.3126 0.949776 13.3439 1.07555 13.3439H13.9574C14.1441 13.3439 14.3193 13.287 14.4716 13.2021L9.72397 8.77002Z" fill="#14569B"/>
<path d="M7.51075 9.54257L14.4966 2.81313C14.3385 2.71909 14.1544 2.65601 13.957 2.65601H1.07522C0.818257 2.65601 0.5828 2.75578 0.399414 2.90795L7.51075 9.54257Z" fill="#14569B"/>
<path d="M0 3.89526V12.2685C0 12.3646 0.0220924 12.4573 0.0460746 12.5458L4.59085 8.16932L0 3.89526Z" fill="#14569B"/>
</svg>
