<svg width="40" height="41" viewBox="0 0 40 41" fill="none" xmlns="http://www.w3.org/2000/svg">
<g clip-path="url(#clip0_19_323)">
<rect y="0.776855" width="40" height="40" rx="20" fill="white"/>
<path d="M20 0.776855C8.95427 0.776855 0 9.73113 0 20.7769C0 31.8226 8.95427 40.7769 20 40.7769C31.0457 40.7769 40 31.8226 40 20.7769C40 9.73113 31.0457 0.776855 20 0.776855ZM27.6301 10.962L24.8638 10.9632C22.6946 10.9632 22.2752 11.994 22.2752 13.5065V16.8415H27.448L27.4455 22.065H22.2756V35.4698H16.8802V22.065H12.3699V16.8415H16.8802V12.9892C16.8802 8.51865 19.6117 6.08386 23.5994 6.08386L27.6305 6.09V10.962H27.6301Z" fill="#14569B"/>
</g>
<defs>
<clipPath id="clip0_19_323">
<rect y="0.776855" width="40" height="40" rx="20" fill="white"/>
</clipPath>
</defs>
</svg>
