<svg width="15" height="16" viewBox="0 0 15 16" fill="none" xmlns="http://www.w3.org/2000/svg">
<path d="M14.0033 0.500001H0.630431C0.39442 0.499555 0.178188 0.631317 0.0703699 0.841154C-0.0389357 1.05382 -0.0197514 1.3099 0.119892 1.50413L5.01916 8.40584C5.0208 8.40822 5.02258 8.41045 5.02422 8.41283C5.20223 8.65316 5.2986 8.94434 5.29904 9.24341V14.8703C5.298 15.0369 5.36344 15.1971 5.48077 15.3153C5.59826 15.4334 5.75798 15.5 5.92454 15.5C6.00916 15.4999 6.09303 15.483 6.17126 15.4505L8.92427 14.4008C9.17084 14.3254 9.33458 14.0927 9.33458 13.8125V9.24341C9.33502 8.94434 9.43139 8.65316 9.60925 8.41283C9.61089 8.41045 9.61267 8.40822 9.61431 8.40584L14.5137 1.50398C14.6534 1.3099 14.6726 1.05396 14.5633 0.841302C14.4556 0.631317 14.2392 0.499555 14.0033 0.500001Z" fill="#14569B"/>
</svg>
