<svg width="40" height="41" viewBox="0 0 40 41" fill="none" xmlns="http://www.w3.org/2000/svg">
<rect y="0.399902" width="40" height="40" rx="20" fill="#14569B"/>
<g clip-path="url(#clip0_3324_1105)">
<path d="M14.2451 17.3413H9.73462V31.233H14.2451V17.3413Z" fill="white"/>
<path d="M11.9904 10.3999C10.5359 10.3999 9.58586 11.4424 9.61529 12.831C9.58586 14.158 10.5345 15.2313 11.9595 15.2313C13.3846 15.2313 14.3934 14.158 14.3934 12.831C14.364 11.4424 13.4448 10.3999 11.9904 10.3999Z" fill="white"/>
<path d="M25.4619 17.0151C23.4974 17.0151 22.148 17.9469 21.3955 18.7891V17.3416H16.885V31.2333H21.3955V23.4846C21.3955 23.0684 21.4544 22.6242 21.5735 22.3566C21.8705 21.5257 22.6118 20.6653 23.8589 20.6653C25.4913 20.6653 26.1443 21.9418 26.1443 23.8111V31.2333H30.6548V23.2478C30.6548 18.974 28.4297 17.0165 25.4619 17.0165V17.0151Z" fill="white"/>
</g>
<defs>
<clipPath id="clip0_3324_1105">
<rect width="21.0393" height="20.8333" fill="white" transform="translate(9.61548 10.3999)"/>
</clipPath>
</defs>
</svg>
