<svg width="80" height="95" viewBox="0 0 80 95" fill="none" xmlns="http://www.w3.org/2000/svg">
<g filter="url(#filter0_d_3453_4629)">
<path d="M53.669 34.7002C53.669 42.2941 47.5129 48.4502 39.9189 48.4502C32.325 48.4502 26.1689 42.2941 26.1689 34.7002C26.1689 27.1062 32.325 20.9501 39.9189 20.9501C47.5129 20.9501 53.669 27.1062 53.669 34.7002Z" fill="white"/>
<path d="M39.9189 16C28.9356 16 20 24.9356 20 35.9188C20 49.5494 37.8255 69.5599 38.5844 70.4051C39.2973 71.199 40.5419 71.1976 41.2534 70.4051C42.0124 69.5599 59.8379 49.5494 59.8379 35.9188C59.8377 24.9356 50.9022 16 39.9189 16ZM39.9189 45.9406C34.3929 45.9406 29.8973 41.4448 29.8973 35.9188C29.8973 30.3928 34.393 25.8972 39.9189 25.8972C45.4448 25.8972 49.9404 30.3929 49.9404 35.9189C49.9404 41.4449 45.4448 45.9406 39.9189 45.9406Z" fill="#14569B"/>
</g>
<defs>
<filter id="filter0_d_3453_4629" x="0" y="0" width="79.8379" height="95" filterUnits="userSpaceOnUse" color-interpolation-filters="sRGB">
<feFlood flood-opacity="0" result="BackgroundImageFix"/>
<feColorMatrix in="SourceAlpha" type="matrix" values="0 0 0 0 0 0 0 0 0 0 0 0 0 0 0 0 0 0 127 0" result="hardAlpha"/>
<feOffset dy="4"/>
<feGaussianBlur stdDeviation="10"/>
<feComposite in2="hardAlpha" operator="out"/>
<feColorMatrix type="matrix" values="0 0 0 0 0 0 0 0 0 0 0 0 0 0 0 0 0 0 0.2 0"/>
<feBlend mode="normal" in2="BackgroundImageFix" result="effect1_dropShadow_3453_4629"/>
<feBlend mode="normal" in="SourceGraphic" in2="effect1_dropShadow_3453_4629" result="shape"/>
</filter>
</defs>
</svg>
