<svg width="32" height="32" viewBox="0 0 32 32" fill="none" xmlns="http://www.w3.org/2000/svg">
<path fill-rule="evenodd" clip-rule="evenodd" d="M16.0287 2.66663C12.6831 2.66663 9.63437 3.7716 7.8311 4.67483C7.66857 4.75622 7.51624 4.83597 7.37464 4.91313C7.0945 5.06581 6.85664 5.20833 6.6665 5.33329L8.7183 8.35376L9.68404 8.73823C13.4591 10.643 18.5215 10.643 22.2966 8.73823L23.3932 8.16929L25.3332 5.33329C25.0489 5.14376 24.6557 4.91381 24.1719 4.66931C24.1424 4.65441 24.1126 4.63945 24.0824 4.62445C22.287 3.73105 19.3123 2.66663 16.0287 2.66663ZM11.2566 6.086C10.5182 5.94977 9.7927 5.76187 9.10784 5.54629C10.7977 4.79592 13.316 3.99996 16.0287 3.99996C17.9082 3.99996 19.6853 4.38213 21.1552 4.86603C19.4326 5.10919 17.5944 5.51966 15.8434 6.02622C14.4656 6.42481 12.8551 6.38094 11.2566 6.086Z" fill="#14569B"/>
<path fill-rule="evenodd" clip-rule="evenodd" d="M23.0788 9.83704L22.8972 9.92864C18.7444 12.024 13.2362 12.024 9.08343 9.92864L8.91077 9.84157C2.67256 16.6869 -3.87188 29.5235 16.0287 29.3312C35.9156 29.139 29.2687 16.4507 23.0788 9.83704ZM17.1407 14.6666H14.859V15.7333C14.1175 15.7316 13.4046 15.9999 12.871 16.4814C12.3376 16.9628 12.0257 17.6196 12.0014 18.3124C11.977 19.0053 12.2422 19.6798 12.7407 20.1929C13.2392 20.706 13.9319 21.0175 14.6719 21.0613L14.859 21.0666H17.1407L17.2434 21.0752C17.3749 21.0974 17.4939 21.1622 17.5796 21.2581C17.6652 21.354 17.7122 21.475 17.7122 21.6C17.7122 21.7249 17.6652 21.846 17.5796 21.9418C17.4939 22.0378 17.3749 22.1025 17.2434 22.1248L17.1407 22.1333H12.5772V24.2666H14.859V25.3333H17.1407V24.2666C17.8822 24.2684 18.5951 24 19.1286 23.5185C19.662 23.0371 19.974 22.3804 19.9983 21.6875C20.0226 20.9946 19.7574 20.3202 19.259 19.807C18.7604 19.2939 18.0678 18.9824 17.3278 18.9386L17.1407 18.9333H14.859L14.7563 18.9248C14.6248 18.9025 14.5058 18.8378 14.4201 18.7418C14.3344 18.646 14.2874 18.5249 14.2874 18.4C14.2874 18.275 14.3344 18.154 14.4201 18.0581C14.5058 17.9622 14.6248 17.8974 14.7563 17.8752L14.859 17.8666H19.4224V15.7333H17.1407V14.6666Z" fill="#14569B"/>
</svg>
