<svg width="385" height="36" viewBox="0 0 385 36" fill="none" xmlns="http://www.w3.org/2000/svg">
<path d="M0.352 21.2199C0.352 10.0359 7.552 0.771901 17.776 0.771901C26.752 0.771901 31.984 5.6199 31.984 14.9799C31.984 26.1639 24.784 35.4279 14.56 35.4279C5.584 35.4279 0.352 30.5799 0.352 21.2199ZM22.24 15.6039C22.24 11.2359 20.56 8.8839 17.2 8.8839C12.64 8.8839 10.096 14.8839 10.096 20.5959C10.096 24.9639 11.776 27.3159 15.136 27.3159C19.696 27.3159 22.24 21.3159 22.24 15.6039ZM69.1139 1.2999L65.7539 20.5479C63.8819 31.2039 58.7459 35.4279 49.8179 35.4279C41.4659 35.4279 34.6019 31.2039 36.4739 20.5479L39.8339 1.2999H49.3379L45.9779 20.5479C45.2579 24.6759 46.5059 27.2199 50.3459 27.2199C53.9939 27.2199 55.5299 24.6759 56.2499 20.5479L59.6099 1.2999H69.1139ZM87.8406 16.2279C90.5286 16.2279 92.4966 14.9319 92.4966 11.9559C92.4966 10.0359 91.5366 8.8839 88.6086 8.8839H83.7126L82.4166 16.2279H87.8406ZM94.1286 22.3719L98.4486 34.8999H88.6086L84.9126 23.5719H81.1206L79.1046 34.8999H69.8406L75.7446 1.2999H89.0406C98.0166 1.2999 102.049 4.8039 102.049 10.6599C102.049 17.2839 98.2566 20.6439 94.1286 22.3719ZM138.624 1.2999C146.928 1.2999 151.392 4.6119 151.392 11.1399C151.392 19.8279 144.672 24.0039 137.808 24.0039H130.992L129.12 34.8999H119.856L125.76 1.2999H138.624ZM137.04 16.4199C140.208 16.4199 141.984 14.7879 141.984 12.1479C141.984 9.6519 140.448 8.8839 137.568 8.8839H133.68L132.336 16.4199H137.04ZM163.552 21.6039H169.168L168.928 19.3959C168.448 15.0759 168.304 13.2999 168.256 10.9959C167.632 12.9639 166.624 15.1719 164.608 19.3959L163.552 21.6039ZM169.984 28.9959H160L157.168 34.8999H147.184L165.088 1.2999H174.688L180.736 34.8999H170.656L169.984 28.9959ZM203.763 16.2279C206.451 16.2279 208.419 14.9319 208.419 11.9559C208.419 10.0359 207.459 8.8839 204.531 8.8839H199.635L198.339 16.2279H203.763ZM210.051 22.3719L214.371 34.8999H204.531L200.835 23.5719H197.043L195.027 34.8999H185.763L191.667 1.2999H204.963C213.939 1.2999 217.971 4.8039 217.971 10.6599C217.971 17.2839 214.179 20.6439 210.051 22.3719ZM251.493 1.2999L250.053 9.4119H240.741L236.229 34.8999H226.773L231.285 9.4119H222.117L223.557 1.2999H251.493ZM286.198 1.2999L280.246 34.8999H272.662L266.806 23.8119C265.702 21.7479 263.542 17.4279 262.966 15.9399C262.918 17.4279 262.198 21.8919 261.718 24.6279L259.894 34.8999H250.966L256.918 1.2999H265.126L270.742 11.2359C271.894 13.2999 274.102 17.7639 274.582 19.1559C274.63 17.6679 275.158 13.2039 275.638 10.4679L277.27 1.2999H286.198ZM314.275 27.0759L312.931 34.8999H287.059L292.963 1.2999H318.499L317.107 9.1239H300.787L300.019 13.5879H309.763L308.371 21.3159H298.627L297.619 27.0759H314.275ZM336.888 16.2279C339.576 16.2279 341.544 14.9319 341.544 11.9559C341.544 10.0359 340.584 8.8839 337.656 8.8839H332.76L331.464 16.2279H336.888ZM343.176 22.3719L347.496 34.8999H337.656L333.96 23.5719H330.168L328.152 34.8999H318.888L324.792 1.2999H338.088C347.064 1.2999 351.096 4.8039 351.096 10.6599C351.096 17.2839 347.304 20.6439 343.176 22.3719ZM370.826 14.0199C378.602 16.6119 381.29 19.2039 381.29 23.8119C381.29 31.5879 375.674 35.4279 367.418 35.4279C360.698 35.4279 355.034 32.5479 352.058 30.1479L357.866 23.2839C360.026 24.9639 363.962 27.4119 368.474 27.4119C370.682 27.4119 371.69 26.5959 371.69 25.3959C371.69 24.0999 371.066 23.1879 366.698 21.7959C359.258 19.3959 356.378 16.6599 356.378 11.8119C356.378 4.3719 362.282 0.771901 370.25 0.771901C375.962 0.771901 381.434 3.1239 384.218 5.6679L378.41 12.5319C376.346 10.8039 372.746 8.7879 368.954 8.7879C367.034 8.7879 365.978 9.6039 365.978 10.6119C365.978 11.8599 366.554 12.5799 370.826 14.0199Z" fill="white"/>
</svg>
