<svg width="20" height="21" viewBox="0 0 20 21" fill="none" xmlns="http://www.w3.org/2000/svg">
<g clip-path="url(#clip0_3453_1356)">
<path d="M10.0001 0.5C6.00613 0.5 2.75684 3.7493 2.75684 7.7432C2.75684 12.6998 9.23883 19.9763 9.5148 20.2836C9.77402 20.5723 10.2266 20.5718 10.4854 20.2836C10.7613 19.9763 17.2433 12.6998 17.2433 7.7432C17.2432 3.7493 13.994 0.5 10.0001 0.5ZM10.0001 11.3875C7.99062 11.3875 6.35586 9.75266 6.35586 7.7432C6.35586 5.73375 7.99066 4.09898 10.0001 4.09898C12.0095 4.09898 13.6443 5.73379 13.6443 7.74324C13.6443 9.75269 12.0095 11.3875 10.0001 11.3875Z" fill="white"/>
</g>
<defs>
<clipPath id="clip0_3453_1356">
<rect width="20" height="20" fill="white" transform="translate(0 0.5)"/>
</clipPath>
</defs>
</svg>
