<svg width="15" height="16" viewBox="0 0 15 16" fill="none" xmlns="http://www.w3.org/2000/svg">
<path d="M14.4667 12.3204L11.9979 9.85162C12.4468 8.95386 12.746 7.90648 12.746 6.8591C12.746 3.34289 9.90314 0.5 6.38693 0.5C2.87072 0.5 0.027832 3.34289 0.027832 6.8591C0.027832 10.3753 2.87072 13.2182 6.38693 13.2182C7.43431 13.2182 8.4817 12.919 9.37945 12.4701L11.8483 14.9389C12.5964 15.687 13.7186 15.687 14.4667 14.9389C15.1401 14.1908 15.1401 13.0686 14.4667 12.3204ZM6.38693 11.7219C3.69367 11.7219 1.52409 9.55237 1.52409 6.8591C1.52409 4.16584 3.69367 1.99626 6.38693 1.99626C9.0802 1.99626 11.2498 4.16584 11.2498 6.8591C11.2498 9.55237 9.0802 11.7219 6.38693 11.7219Z" fill="#14569B"/>
</svg>
