<svg width="20" height="21" viewBox="0 0 20 21" fill="none" xmlns="http://www.w3.org/2000/svg">
<g clip-path="url(#clip0_3643_2174)">
<path d="M19.2895 16.2606L15.9977 12.9688C16.5962 11.7718 16.9952 10.3753 16.9952 8.9788C16.9952 4.29052 13.2047 0.5 8.5164 0.5C3.82812 0.5 0.0375977 4.29052 0.0375977 8.9788C0.0375977 13.6671 3.82812 17.4576 8.5164 17.4576C9.91291 17.4576 11.3094 17.0586 12.5064 16.4601L15.7982 19.7519C16.7957 20.7494 18.292 20.7494 19.2895 19.7519C20.1872 18.7544 20.1872 17.2581 19.2895 16.2606ZM8.5164 15.4626C4.92538 15.4626 2.03261 12.5698 2.03261 8.9788C2.03261 5.38778 4.92538 2.49501 8.5164 2.49501C12.1074 2.49501 15.0002 5.38778 15.0002 8.9788C15.0002 12.5698 12.1074 15.4626 8.5164 15.4626Z" fill="#414141"/>
</g>
<defs>
<clipPath id="clip0_3643_2174">
<rect width="20" height="20" fill="white" transform="translate(0 0.5)"/>
</clipPath>
</defs>
</svg>
