<svg width="16" height="15" viewBox="0 0 16 15" fill="none" xmlns="http://www.w3.org/2000/svg">
<g clip-path="url(#clip0_149_1048)">
<path d="M13.8579 6.73415L6.67581 13.9159C6.55161 14.0404 6.33445 14.0404 6.20993 13.9159L1.81191 9.51784C1.61882 9.32475 1.30612 9.32475 1.11306 9.51784C0.919996 9.71077 0.919996 10.0238 1.11306 10.2167L5.5111 14.6147C5.76003 14.8638 6.091 15.0009 6.44307 15.0009C6.79515 15.0009 7.12612 14.8638 7.37488 14.6147L14.5568 7.433C14.7499 7.24007 14.7499 6.92705 14.5568 6.73415C14.3636 6.54109 14.051 6.54109 13.8579 6.73415Z" fill="#14569B"/>
<path d="M5.77378 13.0548C6.09535 13.3765 6.61694 13.3765 6.93867 13.0548L14.1205 5.87287C14.4737 5.51967 14.6324 4.84914 14.4752 4.37518L13.6752 1.96331C13.5181 1.48935 13.0034 0.986874 12.5256 0.840919L9.94345 0.0527826C9.46588 -0.0930111 8.79237 0.0750177 8.43916 0.42825L1.37546 7.49168C1.05388 7.81341 1.05388 8.33483 1.37546 8.65657L5.77378 13.0548ZM10.342 2.34058C10.8247 1.85787 11.607 1.85787 12.0896 2.34058C12.5723 2.82329 12.5723 3.60567 12.0896 4.08835C11.6069 4.57107 10.8245 4.57107 10.342 4.08835C9.85944 3.60567 9.85944 2.82329 10.342 2.34058Z" fill="#14569B"/>
</g>
<defs>
<clipPath id="clip0_149_1048">
<rect width="15" height="15" fill="white" transform="translate(0.333496)"/>
</clipPath>
</defs>
</svg>
