<svg width="15" height="15" viewBox="0 0 15 15" fill="none" xmlns="http://www.w3.org/2000/svg">
<g clip-path="url(#clip0_3643_306)">
<path d="M13.5484 0.725586H1.45161C0.653226 0.725586 0 1.37881 0 2.1772C0 2.97559 0.653226 3.62881 1.45161 3.62881H13.5484C14.3468 3.62881 15 2.97559 15 2.1772C15 1.37881 14.3468 0.725586 13.5484 0.725586Z" fill="#14569B"/>
<path d="M13.5484 6.04785H1.45161C0.653226 6.04785 0 6.70108 0 7.49946C0 8.29785 0.653226 8.95108 1.45161 8.95108H13.5484C14.3468 8.95108 15 8.29785 15 7.49946C15 6.70108 14.3468 6.04785 13.5484 6.04785Z" fill="#14569B"/>
<path d="M13.5484 11.3711H1.45161C0.653226 11.3711 0 12.0243 0 12.8227C0 13.6211 0.653226 14.2743 1.45161 14.2743H13.5484C14.3468 14.2743 15 13.6211 15 12.8227C15 12.0243 14.3468 11.3711 13.5484 11.3711Z" fill="#14569B"/>
</g>
<defs>
<clipPath id="clip0_3643_306">
<rect width="15" height="15" fill="white"/>
</clipPath>
</defs>
</svg>
