<svg width="16" height="15" viewBox="0 0 16 15" fill="none" xmlns="http://www.w3.org/2000/svg">
<g clip-path="url(#clip0_149_1031)">
<path d="M8.33362 7.50009C9.36905 7.50009 10.2528 7.13375 10.9851 6.40138C11.7176 5.66901 12.0838 4.78525 12.0838 3.74996C12.0838 2.71484 11.7176 1.83104 10.9851 1.0985C10.2526 0.366167 9.36878 0 8.33362 0C7.29847 0 6.41454 0.366167 5.6822 1.0985C4.94973 1.83104 4.5835 2.7148 4.5835 3.74996C4.5835 4.78525 4.94973 5.66901 5.6822 6.40138C6.41474 7.13375 7.29844 7.50009 8.33362 7.50009Z" fill="#14569B"/>
<path d="M15.1745 11.46C15.1516 11.1313 15.106 10.7764 15.0377 10.3955C14.9694 10.0146 14.883 9.66157 14.7788 9.3359C14.6746 9.01047 14.5346 8.69304 14.3588 8.38376C14.1831 8.07451 13.9813 7.81089 13.7533 7.59269C13.5253 7.37457 13.247 7.20053 12.9185 7.07035C12.5895 6.9402 12.2266 6.875 11.8294 6.875C11.7709 6.875 11.6341 6.94498 11.4192 7.08499C11.2046 7.22499 10.962 7.38127 10.6918 7.55387C10.4217 7.72616 10.0699 7.88255 9.63715 8.02231C9.20418 8.16231 8.76967 8.23233 8.33331 8.23233C7.89712 8.23233 7.46258 8.16231 7.02968 8.02231C6.59681 7.88255 6.24515 7.72616 5.97496 7.55387C5.70481 7.38127 5.46233 7.22502 5.24752 7.08499C5.0326 6.94498 4.89595 6.875 4.83736 6.875C4.44024 6.875 4.07725 6.9402 3.7485 7.07035C3.41969 7.20053 3.1414 7.3747 2.91349 7.59269C2.68564 7.81089 2.4838 8.07451 2.30809 8.38376C2.13237 8.69304 1.99241 9.01061 1.88822 9.3359C1.78406 9.66157 1.69776 10.0146 1.62942 10.3955C1.56101 10.7764 1.51545 11.1311 1.49263 11.46C1.46985 11.7889 1.4585 12.1258 1.4585 12.4709C1.4585 13.252 1.69619 13.8691 2.1714 14.3216C2.64672 14.7739 3.27828 15 4.06603 15H12.6014C13.3891 15 14.0206 14.7739 14.4959 14.3216C14.9714 13.8691 15.2089 13.2521 15.2089 12.4709C15.2089 12.1258 15.1975 11.7889 15.1745 11.46Z" fill="#14569B"/>
</g>
<defs>
<clipPath id="clip0_149_1031">
<rect width="15" height="15" fill="white" transform="translate(0.833496)"/>
</clipPath>
</defs>
</svg>
