<svg width="40" height="41" viewBox="0 0 40 41" fill="none" xmlns="http://www.w3.org/2000/svg">
<g clip-path="url(#clip0_3324_1080)">
<rect y="0.399902" width="40" height="40" rx="20" fill="white"/>
<path d="M17.5088 24.1467L24.0145 20.3998L17.5088 16.6528V24.1467Z" fill="#14569B"/>
<path d="M20 0.399902C8.95599 0.399902 0 9.3559 0 20.3999C0 31.4439 8.95599 40.3999 20 40.3999C31.044 40.3999 40 31.4439 40 20.3999C40 9.3559 31.044 0.399902 20 0.399902ZM32.4969 20.4203C32.4969 20.4203 32.4969 24.4764 31.9824 26.4323C31.694 27.5029 30.8499 28.347 29.7794 28.6351C27.8235 29.1499 20 29.1499 20 29.1499C20 29.1499 12.197 29.1499 10.2206 28.6146C9.15009 28.3265 8.30597 27.4821 8.01758 26.4116C7.50275 24.4764 7.50275 20.3999 7.50275 20.3999C7.50275 20.3999 7.50275 16.3441 8.01758 14.3882C8.30566 13.3177 9.17053 12.4528 10.2206 12.1647C12.1765 11.6499 20 11.6499 20 11.6499C20 11.6499 27.8235 11.6499 29.7794 12.1852C30.8499 12.4733 31.694 13.3177 31.9824 14.3882C32.5177 16.3441 32.4969 20.4203 32.4969 20.4203V20.4203Z" fill="#14569B"/>
</g>
<defs>
<clipPath id="clip0_3324_1080">
<rect y="0.399902" width="40" height="40" rx="20" fill="white"/>
</clipPath>
</defs>
</svg>
